<?xml version="1.0" encoding="utf-8"?>
<!-- Generator: Adobe Illustrator 16.0.0, SVG Export Plug-In . SVG Version: 6.00 Build 0)  -->
<!DOCTYPE svg PUBLIC "-//W3C//DTD SVG 1.1//EN" "http://www.w3.org/Graphics/SVG/1.1/DTD/svg11.dtd">
<svg version="1.1" id="Ebene_1" xmlns="http://www.w3.org/2000/svg" xmlns:xlink="http://www.w3.org/1999/xlink" x="0px" y="0px"
	 width="3401.57px" height="1417.32px" viewBox="0 0 3401.57 1417.32" style="enable-background:new 0 0 3401.57 1417.32;"
	 xml:space="preserve">
<g>
</g>
<g>
</g>
<g>
</g>
<path d="M121.199,213.523c-0.512-0.89-1.49-1.078-2.182-0.422l-19.36,18.314v-73.372c0-1.104-0.699-2-1.56-2
	c-0.862,0-1.561,0.896-1.561,2v73.426l-19.893-18.382c-0.698-0.645-1.674-0.444-2.178,0.453c-0.503,0.896-0.346,2.146,0.354,2.792
	L97.184,237c0.021,0.02,0.048,0.027,0.07,0.045c0.095,0.079,0.194,0.144,0.299,0.193c0.039,0.019,0.077,0.039,0.117,0.054
	c0.139,0.05,0.279,0.084,0.423,0.084c0.001,0,0.002,0,0.003,0l0,0c0,0,0.001,0,0.001,0c0.001,0,0.002,0,0.003,0
	c0.143-0.001,0.285-0.034,0.424-0.085c0.043-0.016,0.085-0.039,0.127-0.06c0.052-0.025,0.105-0.041,0.155-0.074
	c0.045-0.029,0.079-0.074,0.121-0.108c0.031-0.025,0.065-0.034,0.095-0.062l21.847-20.667
	C121.563,215.664,121.711,214.412,121.199,213.523z"/>
</svg>
